<svg xmlns="http://www.w3.org/2000/svg" xmlns:xlink="http://www.w3.org/1999/xlink" width="500" zoomAndPan="magnify" viewBox="0 0 375 374.999991" height="500" preserveAspectRatio="xMidYMid meet" version="1.0"><defs><g/><clipPath id="dafaa6b6cb"><path d="M 49.316406 164.617188 L 110.816406 164.617188 L 110.816406 210.367188 L 49.316406 210.367188 Z M 49.316406 164.617188 " clip-rule="nonzero"/></clipPath><clipPath id="a45d706f58"><path d="M 0.550781 0.617188 L 31 0.617188 L 31 36 L 0.550781 36 Z M 0.550781 0.617188 " clip-rule="nonzero"/></clipPath><clipPath id="68cb349919"><path d="M 8 3 L 61.816406 3 L 61.816406 46.367188 L 8 46.367188 Z M 8 3 " clip-rule="nonzero"/></clipPath><clipPath id="3226a6c559"><rect x="0" width="62" y="0" height="47"/></clipPath></defs><rect x="-37.5" width="450" fill="#ffffff" y="-37.499999" height="449.999989" fill-opacity="1"/><rect x="-37.5" width="450" fill="#b4b4b4" y="-37.499999" height="449.999989" fill-opacity="1"/><g clip-path="url(#dafaa6b6cb)"><g transform="matrix(1, 0, 0, 1, 49, 164)"><g clip-path="url(#3226a6c559)"><g clip-path="url(#a45d706f58)"><path fill="#ffffff" d="M 28.011719 0.613281 L 30.445312 5.121094 L 27.691406 6.460938 L 26.753906 4.492188 L 6.785156 14.035156 C 12.121094 18.894531 15.886719 25.941406 17.976562 34.988281 L 17.855469 35.027344 C 14.945312 27.410156 9.070312 20.046875 0.398438 13.136719 L 0.316406 13.074219 L 28.011719 0.617188 Z M 28.011719 0.613281 " fill-opacity="1" fill-rule="nonzero"/></g><path fill="#ffffff" d="M 31.355469 35.425781 L 31.347656 35.460938 L 31.316406 35.472656 C 30.816406 35.652344 30.265625 35.898438 29.683594 36.207031 L 29.601562 36.25 L 29.589844 36.15625 C 28.777344 28.632812 27.085938 22.707031 24.5625 18.550781 L 24.527344 18.488281 L 50.40625 7.320312 L 50.417969 7.402344 C 50.902344 11.59375 51 15.875 50.707031 20.136719 L 50.707031 20.15625 C 50.707031 20.15625 50.695312 20.171875 50.695312 20.171875 C 50.152344 20.839844 49.519531 21.566406 48.820312 22.328125 L 48.707031 22.449219 L 48.707031 22.285156 C 48.765625 18.375 48.640625 14.761719 48.335938 11.546875 L 29.496094 20.027344 C 31.351562 27.273438 31.980469 32.453125 31.355469 35.425781 Z M 31.355469 35.425781 " fill-opacity="1" fill-rule="nonzero"/><g clip-path="url(#68cb349919)"><path fill="#ffffff" d="M 11.898438 28.414062 C 9.445312 34.085938 9.664062 38.226562 12.535156 40.386719 C 14.019531 41.507812 16.132812 42.03125 18.648438 42.03125 C 25.699219 42.03125 35.894531 37.902344 44.148438 31.136719 C 49.0625 27.109375 52.8125 22.773438 54.988281 18.597656 C 57.023438 14.703125 57.546875 11.144531 56.460938 8.578125 C 55.070312 5.285156 51.183594 3.824219 45.519531 4.464844 L 45.5 4.339844 C 51.863281 3.269531 56.441406 3.816406 59.105469 5.96875 C 60.84375 7.375 61.785156 9.480469 61.90625 12.234375 C 62.050781 15.546875 60.6875 19.574219 57.957031 23.882812 C 55.511719 27.734375 52.070312 31.578125 48.507812 34.425781 C 41.578125 39.964844 32.070312 44.796875 25.90625 45.914062 C 25.394531 46.007812 23.203125 46.375 20.546875 46.375 C 16.902344 46.375 12.386719 45.683594 10.148438 42.648438 C 7.894531 39.589844 8.445312 34.78125 11.78125 28.359375 Z M 11.898438 28.414062 " fill-opacity="1" fill-rule="nonzero"/></g><path fill="#ffffff" d="M 36.914062 7.960938 L 19.117188 16.796875 C 22.015625 21.800781 23.789062 28.492188 24.386719 36.691406 L 24.390625 36.75 L 24.332031 36.757812 C 24.121094 36.792969 23.941406 36.839844 23.789062 36.890625 L 23.722656 36.914062 L 23.703125 36.847656 C 21.492188 27.460938 18.011719 20.261719 13.355469 15.453125 L 13.292969 15.386719 L 38.992188 3.476562 L 41.441406 9.164062 L 38.257812 10.632812 L 36.910156 7.960938 Z M 36.914062 7.960938 " fill-opacity="1" fill-rule="nonzero"/></g></g></g><g fill="#ffffff" fill-opacity="1"><g transform="translate(111.063028, 201.899636)"><g><path d="M 26.421875 -23.328125 L 26.421875 0 L 23.359375 0 L 23.359375 -17.390625 L 15.609375 0 L 13.453125 0 L 5.65625 -17.421875 L 5.65625 0 L 2.59375 0 L 2.59375 -23.328125 L 5.890625 -23.328125 L 14.53125 -4.046875 L 23.15625 -23.328125 Z M 26.421875 -23.328125 "/></g></g></g><g fill="#ffffff" fill-opacity="1"><g transform="translate(137.611225, 201.899636)"><g><path d="M 10.65625 0.296875 C 8.925781 0.296875 7.359375 -0.09375 5.953125 -0.875 C 4.546875 -1.664062 3.441406 -2.785156 2.640625 -4.234375 C 1.847656 -5.679688 1.453125 -7.359375 1.453125 -9.265625 C 1.453125 -11.148438 1.859375 -12.816406 2.671875 -14.265625 C 3.492188 -15.722656 4.613281 -16.835938 6.03125 -17.609375 C 7.445312 -18.378906 9.03125 -18.765625 10.78125 -18.765625 C 12.53125 -18.765625 14.113281 -18.378906 15.53125 -17.609375 C 16.945312 -16.835938 18.066406 -15.734375 18.890625 -14.296875 C 19.710938 -12.859375 20.125 -11.179688 20.125 -9.265625 C 20.125 -7.359375 19.703125 -5.679688 18.859375 -4.234375 C 18.015625 -2.785156 16.875 -1.664062 15.4375 -0.875 C 14 -0.09375 12.40625 0.296875 10.65625 0.296875 Z M 10.65625 -2.390625 C 11.75 -2.390625 12.78125 -2.644531 13.75 -3.15625 C 14.71875 -3.675781 15.5 -4.453125 16.09375 -5.484375 C 16.6875 -6.523438 16.984375 -7.785156 16.984375 -9.265625 C 16.984375 -10.753906 16.691406 -12.015625 16.109375 -13.046875 C 15.523438 -14.078125 14.757812 -14.84375 13.8125 -15.34375 C 12.875 -15.851562 11.851562 -16.109375 10.75 -16.109375 C 9.625 -16.109375 8.59375 -15.851562 7.65625 -15.34375 C 6.726562 -14.84375 5.984375 -14.078125 5.421875 -13.046875 C 4.859375 -12.015625 4.578125 -10.753906 4.578125 -9.265625 C 4.578125 -7.765625 4.851562 -6.492188 5.40625 -5.453125 C 5.957031 -4.421875 6.691406 -3.648438 7.609375 -3.140625 C 8.535156 -2.640625 9.550781 -2.390625 10.65625 -2.390625 Z M 10.65625 -2.390625 "/></g></g></g><g fill="#ffffff" fill-opacity="1"><g transform="translate(156.713622, 201.899636)"><g><path d="M 11.59375 -18.8125 C 13.84375 -18.8125 15.660156 -18.128906 17.046875 -16.765625 C 18.441406 -15.410156 19.140625 -13.453125 19.140625 -10.890625 L 19.140625 0 L 16.109375 0 L 16.109375 -10.453125 C 16.109375 -12.296875 15.644531 -13.703125 14.71875 -14.671875 C 13.800781 -15.648438 12.546875 -16.140625 10.953125 -16.140625 C 9.335938 -16.140625 8.050781 -15.632812 7.09375 -14.625 C 6.132812 -13.613281 5.65625 -12.144531 5.65625 -10.21875 L 5.65625 0 L 2.59375 0 L 2.59375 -18.46875 L 5.65625 -18.46875 L 5.65625 -15.84375 C 6.269531 -16.78125 7.097656 -17.507812 8.140625 -18.03125 C 9.179688 -18.550781 10.332031 -18.8125 11.59375 -18.8125 Z M 11.59375 -18.8125 "/></g></g></g><g fill="#ffffff" fill-opacity="1"><g transform="translate(175.816019, 201.899636)"><g><path d="M 19.453125 -9.9375 C 19.453125 -9.351562 19.414062 -8.738281 19.34375 -8.09375 L 4.578125 -8.09375 C 4.691406 -6.269531 5.316406 -4.847656 6.453125 -3.828125 C 7.585938 -2.804688 8.960938 -2.296875 10.578125 -2.296875 C 11.910156 -2.296875 13.019531 -2.601562 13.90625 -3.21875 C 14.789062 -3.832031 15.410156 -4.660156 15.765625 -5.703125 L 19.078125 -5.703125 C 18.578125 -3.921875 17.585938 -2.472656 16.109375 -1.359375 C 14.628906 -0.253906 12.785156 0.296875 10.578125 0.296875 C 8.828125 0.296875 7.257812 -0.09375 5.875 -0.875 C 4.5 -1.664062 3.414062 -2.785156 2.625 -4.234375 C 1.84375 -5.679688 1.453125 -7.359375 1.453125 -9.265625 C 1.453125 -11.179688 1.832031 -12.859375 2.59375 -14.296875 C 3.351562 -15.734375 4.425781 -16.835938 5.8125 -17.609375 C 7.195312 -18.378906 8.785156 -18.765625 10.578125 -18.765625 C 12.335938 -18.765625 13.890625 -18.382812 15.234375 -17.625 C 16.578125 -16.863281 17.613281 -15.8125 18.34375 -14.46875 C 19.082031 -13.132812 19.453125 -11.625 19.453125 -9.9375 Z M 16.28125 -10.578125 C 16.28125 -11.742188 16.019531 -12.75 15.5 -13.59375 C 14.988281 -14.4375 14.285156 -15.078125 13.390625 -15.515625 C 12.503906 -15.953125 11.523438 -16.171875 10.453125 -16.171875 C 8.898438 -16.171875 7.578125 -15.675781 6.484375 -14.6875 C 5.398438 -13.707031 4.78125 -12.335938 4.625 -10.578125 Z M 16.28125 -10.578125 "/></g></g></g><g fill="#ffffff" fill-opacity="1"><g transform="translate(194.244587, 201.899636)"><g><path d="M 18.5 -18.46875 L 7.375 8.703125 L 4.21875 8.703125 L 7.859375 -0.203125 L 0.40625 -18.46875 L 3.8125 -18.46875 L 9.609375 -3.5 L 15.328125 -18.46875 Z M 18.5 -18.46875 "/></g></g></g><g fill="#ffffff" fill-opacity="1"><g transform="translate(210.752746, 201.899636)"><g/></g></g><g fill="#ffffff" fill-opacity="1"><g transform="translate(217.288249, 201.899636)"><g><path d="M 26.421875 -23.328125 L 26.421875 0 L 23.359375 0 L 23.359375 -17.390625 L 15.609375 0 L 13.453125 0 L 5.65625 -17.421875 L 5.65625 0 L 2.59375 0 L 2.59375 -23.328125 L 5.890625 -23.328125 L 14.53125 -4.046875 L 23.15625 -23.328125 Z M 26.421875 -23.328125 "/></g></g></g><g fill="#ffffff" fill-opacity="1"><g transform="translate(243.836446, 201.899636)"><g><path d="M 19.453125 -9.9375 C 19.453125 -9.351562 19.414062 -8.738281 19.34375 -8.09375 L 4.578125 -8.09375 C 4.691406 -6.269531 5.316406 -4.847656 6.453125 -3.828125 C 7.585938 -2.804688 8.960938 -2.296875 10.578125 -2.296875 C 11.910156 -2.296875 13.019531 -2.601562 13.90625 -3.21875 C 14.789062 -3.832031 15.410156 -4.660156 15.765625 -5.703125 L 19.078125 -5.703125 C 18.578125 -3.921875 17.585938 -2.472656 16.109375 -1.359375 C 14.628906 -0.253906 12.785156 0.296875 10.578125 0.296875 C 8.828125 0.296875 7.257812 -0.09375 5.875 -0.875 C 4.5 -1.664062 3.414062 -2.785156 2.625 -4.234375 C 1.84375 -5.679688 1.453125 -7.359375 1.453125 -9.265625 C 1.453125 -11.179688 1.832031 -12.859375 2.59375 -14.296875 C 3.351562 -15.734375 4.425781 -16.835938 5.8125 -17.609375 C 7.195312 -18.378906 8.785156 -18.765625 10.578125 -18.765625 C 12.335938 -18.765625 13.890625 -18.382812 15.234375 -17.625 C 16.578125 -16.863281 17.613281 -15.8125 18.34375 -14.46875 C 19.082031 -13.132812 19.453125 -11.625 19.453125 -9.9375 Z M 16.28125 -10.578125 C 16.28125 -11.742188 16.019531 -12.75 15.5 -13.59375 C 14.988281 -14.4375 14.285156 -15.078125 13.390625 -15.515625 C 12.503906 -15.953125 11.523438 -16.171875 10.453125 -16.171875 C 8.898438 -16.171875 7.578125 -15.675781 6.484375 -14.6875 C 5.398438 -13.707031 4.78125 -12.335938 4.625 -10.578125 Z M 16.28125 -10.578125 "/></g></g></g><g fill="#ffffff" fill-opacity="1"><g transform="translate(262.265014, 201.899636)"><g><path d="M 11.59375 -18.8125 C 13.84375 -18.8125 15.660156 -18.128906 17.046875 -16.765625 C 18.441406 -15.410156 19.140625 -13.453125 19.140625 -10.890625 L 19.140625 0 L 16.109375 0 L 16.109375 -10.453125 C 16.109375 -12.296875 15.644531 -13.703125 14.71875 -14.671875 C 13.800781 -15.648438 12.546875 -16.140625 10.953125 -16.140625 C 9.335938 -16.140625 8.050781 -15.632812 7.09375 -14.625 C 6.132812 -13.613281 5.65625 -12.144531 5.65625 -10.21875 L 5.65625 0 L 2.59375 0 L 2.59375 -18.46875 L 5.65625 -18.46875 L 5.65625 -15.84375 C 6.269531 -16.78125 7.097656 -17.507812 8.140625 -18.03125 C 9.179688 -18.550781 10.332031 -18.8125 11.59375 -18.8125 Z M 11.59375 -18.8125 "/></g></g></g><g fill="#ffffff" fill-opacity="1"><g transform="translate(281.367411, 201.899636)"><g><path d="M 6.34375 -15.9375 L 6.34375 -5.0625 C 6.34375 -4.15625 6.53125 -3.515625 6.90625 -3.140625 C 7.289062 -2.773438 7.953125 -2.59375 8.890625 -2.59375 L 11.15625 -2.59375 L 11.15625 0 L 8.390625 0 C 6.679688 0 5.398438 -0.390625 4.546875 -1.171875 C 3.691406 -1.960938 3.265625 -3.257812 3.265625 -5.0625 L 3.265625 -15.9375 L 0.875 -15.9375 L 0.875 -18.46875 L 3.265625 -18.46875 L 3.265625 -23.125 L 6.34375 -23.125 L 6.34375 -18.46875 L 11.15625 -18.46875 L 11.15625 -15.9375 Z M 6.34375 -15.9375 "/></g></g></g><g fill="#ffffff" fill-opacity="1"><g transform="translate(291.17098, 201.899636)"><g><path d="M 10.65625 0.296875 C 8.925781 0.296875 7.359375 -0.09375 5.953125 -0.875 C 4.546875 -1.664062 3.441406 -2.785156 2.640625 -4.234375 C 1.847656 -5.679688 1.453125 -7.359375 1.453125 -9.265625 C 1.453125 -11.148438 1.859375 -12.816406 2.671875 -14.265625 C 3.492188 -15.722656 4.613281 -16.835938 6.03125 -17.609375 C 7.445312 -18.378906 9.03125 -18.765625 10.78125 -18.765625 C 12.53125 -18.765625 14.113281 -18.378906 15.53125 -17.609375 C 16.945312 -16.835938 18.066406 -15.734375 18.890625 -14.296875 C 19.710938 -12.859375 20.125 -11.179688 20.125 -9.265625 C 20.125 -7.359375 19.703125 -5.679688 18.859375 -4.234375 C 18.015625 -2.785156 16.875 -1.664062 15.4375 -0.875 C 14 -0.09375 12.40625 0.296875 10.65625 0.296875 Z M 10.65625 -2.390625 C 11.75 -2.390625 12.78125 -2.644531 13.75 -3.15625 C 14.71875 -3.675781 15.5 -4.453125 16.09375 -5.484375 C 16.6875 -6.523438 16.984375 -7.785156 16.984375 -9.265625 C 16.984375 -10.753906 16.691406 -12.015625 16.109375 -13.046875 C 15.523438 -14.078125 14.757812 -14.84375 13.8125 -15.34375 C 12.875 -15.851562 11.851562 -16.109375 10.75 -16.109375 C 9.625 -16.109375 8.59375 -15.851562 7.65625 -15.34375 C 6.726562 -14.84375 5.984375 -14.078125 5.421875 -13.046875 C 4.859375 -12.015625 4.578125 -10.753906 4.578125 -9.265625 C 4.578125 -7.765625 4.851562 -6.492188 5.40625 -5.453125 C 5.957031 -4.421875 6.691406 -3.648438 7.609375 -3.140625 C 8.535156 -2.640625 9.550781 -2.390625 10.65625 -2.390625 Z M 10.65625 -2.390625 "/></g></g></g><g fill="#ffffff" fill-opacity="1"><g transform="translate(310.273388, 201.899636)"><g><path d="M 5.65625 -15.46875 C 6.195312 -16.519531 6.96875 -17.335938 7.96875 -17.921875 C 8.96875 -18.515625 10.1875 -18.8125 11.625 -18.8125 L 11.625 -15.640625 L 10.8125 -15.640625 C 7.375 -15.640625 5.65625 -13.773438 5.65625 -10.046875 L 5.65625 0 L 2.59375 0 L 2.59375 -18.46875 L 5.65625 -18.46875 Z M 5.65625 -15.46875 "/></g></g></g></svg>